<svg version="1.2" baseProfile="tiny" viewBox="0 0 135.883 236.237" xmlns:xlink="http://www.w3.org/1999/xlink" xmlns="http://www.w3.org/2000/svg">
<path style="fill:#ffffff;" d="M15.84,229.199l-0.016-3.362c-4.325-4.716-12.28-4.495-12.28-4.495s-3.068-2.884-2.987-6.563   L0,32.04c2.438-12.794,23.201-18.521,42.696-18.521h38.438l3.503-12.861c0,0,8.216-2.168,21.596,1.368   c13.381,3.536,19.587,9.587,19.587,9.587l-2.081,7.639c0,0,12.116,6.555,12.116,13.932c-0.005,5.865,0.027,181.611,0.027,181.611   c0,2.975-3.141,6.572-3.141,6.572s-8.328,0.319-12.452,4.635l-0.008,3.269c-5.582,2.074-24.781,6.968-52.358,6.968   C41.919,236.237,21.237,231.219,15.84,229.199z"/>
</svg>