<svg version="1.2" baseProfile="tiny" viewBox="0 0 190.0 300.0" xmlns:xlink="http://www.w3.org/1999/xlink" xmlns="http://www.w3.org/2000/svg">
<path style="fill:#ffffff;" d="M167.2969,37.056L167.2247,34.809C166.155,29.187,161.8667,24.768,155.6005,21.552L157.0616,16.191L158.8704,16.68L159.5069,14.352L159.4917,14.349L159.4936,14.346L157.0692,13.695C157.0692,13.695,152.8189,8.154,136.8133,3.702C120.8115,-0.747,114.5643,2.259,114.5643,2.259L111.7219,1.491L111.4065,2.655L111.4198,2.658L111.1025,3.825L113.1849,4.386L110.2532,15.144L72.8954,15.144L72.8954,15.144C62.3428,15.144,52.2139,16.71,44.3023,19.824L44.4296,19.668L5.1357,37.497L5.1357,37.497C2.9393,37.71,1.2217,39.549,1.2217,41.79C1.2217,44.172,3.1635,46.101,5.5594,46.101L28.9161,61.926L29.3455,217.71C29.3455,217.71,29.0225,221.511,33.4248,226.02L33.4248,297.663L27.4037,297.663L27.4037,298.788L52.5825,298.788L52.5825,297.663L46.2783,297.663L46.2783,233.763C55.5864,237.312,69.9979,240.165,92.3134,240.606L92.3134,297.666L87.4513,297.666L87.4513,298.788L107.8497,298.788L107.8497,297.666L102.7273,297.666L102.7273,240.633C125.9681,240.315,140.8793,237.432,150.4382,233.811L150.4382,297.666L144.4171,297.666L144.4171,298.788L169.5978,298.788L169.5978,297.666L163.2936,297.666L163.2936,226.14C167.8175,221.58,167.4926,217.713,167.4926,217.713L166.9264,46.047L167.6522,46.047L179.4398,46.047L179.4398,41.187L179.4398,40.71L179.4398,37.056L167.2969,37.056L167.2969,37.056Z"/>
</svg>