<svg version="1.2" baseProfile="tiny" id="EdgeSVG_H0BMH" x="0px" y="0px" width="190px" height="300px" viewBox="0 0 190 300" xmlns:xlink="http://www.w3.org/1999/xlink" xmlns="http://www.w3.org/2000/svg">
  <linearGradient id="SVGID_1_" gradientUnits="userSpaceOnUse" x1="0" y1="150" x2="190" y2="150">
    <stop offset="0" style="stop-color:#000000;stop-opacity:0.5"/>
    <stop offset="1" style="stop-color:#000000;stop-opacity:0.5"/>
  </linearGradient>
  <path fill="url(#SVGID_1_)" d="M190,31.741v-2.888l-1.552,0.437c-1.192,0.334-4.582,1.202-5.957,1.202&#xD;&#xA;&#x9;&#x9;c-1.368-0.001-4.767-0.869-5.961-1.203l-1.553-0.434v2.886l4.029,2.16v0.004h-1.838v1.937h-8.689l-0.037-1.167l-0.018-0.093&#xD;&#xA;&#x9;&#x9;c-1.034-5.425-4.965-10.127-11.393-13.645l0.888-3.257l1.812,0.487l0.977-3.595l0.385-1.056l-3.346-0.896&#xD;&#xA;&#x9;&#x9;c-1.22-1.32-6.446-6.15-20.604-10.086c-5.923-1.647-11.214-2.482-15.728-2.482c-3.836,0-6.031,0.606-6.927,0.928L110.862,0&#xD;&#xA;&#x9;&#x9;l-0.636,2.336l-0.306,1.175l-0.317,1.167l2.082,0.561l-2.368,8.691H72.896c-10.857,0-20.021,1.311-27.813,4.35l-2.677,0.971&#xD;&#xA;&#x9;&#x9;l-21.966,9.968l-0.254,0.072c-1.187,0.333-4.567,1.198-5.937,1.202c-1.377-0.004-4.757-0.869-5.944-1.202l-1.553-0.426v0.012&#xD;&#xA;&#x9;&#x9;l-0.037-0.01v2.875l3.744,2.007l-0.346,0.157l-5.309,2.41C2.05,36.686,0,39.002,0,41.789c0,2.914,2.282,5.309,5.162,5.512&#xD;&#xA;&#x9;&#x9;l5.053,3.423v3.221c0,1.115,0.913,2.022,2.036,2.022h5.704l9.743,6.602l0.427,155.109c-0.028,0.581-0.039,4.405,4.078,8.825v69.946&#xD;&#xA;&#x9;&#x9;h-6.021V300h27.621v-3.551H47.5v-60.948c10.672,3.739,25.318,5.854,43.592,6.29v54.658H86.23V300h22.84v-3.551h-5.122v-54.623&#xD;&#xA;&#x9;&#x9;c19.048-0.338,34.261-2.449,45.269-6.283v60.906h-6.021V300h27.621v-3.551h-6.303v-69.822c4.243-4.482,4.226-8.383,4.196-8.953&#xD;&#xA;&#x9;&#x9;l-0.562-170.416h3.509v6.686c0,1.115,0.913,2.022,2.034,2.022h10.81c1.122,0,2.035-0.907,2.035-2.022v-7.057&#xD;&#xA;&#x9;&#x9;c0-0.792-0.461-1.48-1.132-1.812v-1.442h0.566v-5.363h1.836v-4.366h-1.836v-0.004L190,31.741z"/>
</svg>