<svg version="1.2" baseProfile="tiny" viewBox="0 0 190.0 300.0" xmlns:xlink="http://www.w3.org/1999/xlink" xmlns="http://www.w3.org/2000/svg">
<path style="fill:#ffffff;" d="M184.7503,42.42L180.2283,42.42L180.2283,35.118L184.7503,35.118L184.7503,42.42M184.1841,42.429L180.7926,42.429L180.7926,51.978L184.1841,51.978L184.1841,42.429M186.5876,35.118L178.391,35.118L178.391,37.059L186.5876,37.059L186.5876,35.118M185.3146,46.887C185.3146,46.443,184.9498,46.08,184.5014,46.08L173.6923,46.08C173.2458,46.08,172.8791,46.443,172.8791,46.887L172.8791,53.946C172.8791,54.39,173.2458,54.753,173.6923,54.753L184.5014,54.753C184.9498,54.753,185.3146,54.39,185.3146,53.946L185.3146,46.887M188.7802,30.459C188.7802,30.459,184.3266,31.707,182.4893,31.707C180.652,31.704,176.1984,30.459,176.1984,30.459L176.1984,31.017L180.2283,33.177L180.2283,35.112L184.7503,35.112L184.7503,33.177L188.7783,31.017L188.7783,30.459M103.1567,41.865L99.7633,41.865L99.7633,52.542L103.1567,52.542L103.1567,41.865M99.7462,46.326C99.7462,45.879,99.3814,45.516,98.9311,45.516L97.7417,45.516C97.2952,45.516,96.9285,45.879,96.9285,46.326L96.9285,53.382C96.9285,53.826,97.2952,54.192,97.7417,54.192L98.9311,54.192C99.3814,54.192,99.7462,53.826,99.7462,53.382L99.7462,46.326M99.7462,46.326C99.7462,45.879,99.3814,45.516,98.9311,45.516L97.7417,45.516C97.2952,45.516,96.9285,45.879,96.9285,46.326L96.9285,53.382C96.9285,53.826,97.2952,54.192,97.7417,54.192L98.9311,54.192C99.3814,54.192,99.7462,53.826,99.7462,53.382L99.7462,46.326M105.9706,46.326C105.9706,45.879,105.6039,45.516,105.1574,45.516L103.9661,45.516C103.5177,45.516,103.1529,45.879,103.1529,46.326L103.1529,53.382C103.1529,53.826,103.5177,54.192,103.9661,54.192L105.1574,54.192C105.6039,54.192,105.9706,53.826,105.9706,53.382L105.9706,46.326M105.9706,46.326C105.9706,45.879,105.6039,45.516,105.1574,45.516L103.9661,45.516C103.5177,45.516,103.1529,45.879,103.1529,46.326L103.1529,53.382C103.1529,53.826,103.5177,54.192,103.9661,54.192L105.1574,54.192C105.6039,54.192,105.9706,53.826,105.9706,53.382L105.9706,46.326M154.0729,41.865L150.6795,41.865L150.6795,52.542L154.0729,52.542L154.0729,41.865M148.7054,46.326C148.7054,45.624,149.5186,45.516,149.5186,45.516L146.5508,45.516C146.1024,45.516,145.7376,45.879,145.7376,46.326L145.7376,53.382C145.7376,53.826,146.1024,54.192,146.5508,54.192L149.321,54.192C149.2298,54.102,148.7054,54.087,148.7054,53.382L148.7054,46.326M151.5231,46.326C151.5231,45.879,151.1564,45.516,150.7099,45.516L149.5205,45.516C149.0721,45.516,148.7054,45.879,148.7054,46.326L148.7054,53.382C148.7054,53.826,149.0721,54.192,149.5205,54.192L150.7099,54.192C151.1564,54.192,151.5231,53.826,151.5231,53.382L151.5231,46.326M156.3206,46.326C156.3206,45.879,155.9539,45.516,155.5055,45.516L154.8804,45.516C154.432,45.516,154.0653,45.879,154.0653,46.326L154.0653,53.382C154.0653,53.826,154.432,54.192,154.8804,54.192L155.5055,54.192C155.9539,54.192,156.3206,53.826,156.3206,53.382L156.3206,46.326M156.2883,46.326C156.2883,45.879,155.9235,45.516,155.4751,45.516L154.8804,45.516C154.432,45.516,154.0653,45.879,154.0653,46.326L154.0653,53.382C154.0653,53.826,154.432,54.192,154.8804,54.192L155.4751,54.192C155.9235,54.192,156.2883,53.826,156.2883,53.382L156.2883,46.326M48.5013,52.542L51.8928,52.542L51.8928,41.865L48.5013,41.865L48.5013,52.542M53.8669,53.382C53.8669,54.087,53.3425,54.102,53.2513,54.192L56.0215,54.192C56.4699,54.192,56.8366,53.826,56.8366,53.382L56.8366,46.326C56.8366,45.879,56.4699,45.516,56.0215,45.516L53.0537,45.516C53.0537,45.516,53.8669,45.624,53.8669,46.326L53.8669,53.382M51.0473,53.382C51.0473,53.826,51.414,54.192,51.8624,54.192L53.0537,54.192C53.5002,54.192,53.8669,53.826,53.8669,53.382L53.8669,46.326C53.8669,45.879,53.5002,45.516,53.0537,45.516L51.8624,45.516C51.414,45.516,51.0473,45.879,51.0473,46.326L51.0473,53.382M46.2536,53.382C46.2536,53.826,46.6184,54.192,47.0687,54.192L47.6919,54.192C48.1384,54.192,48.5051,53.826,48.5051,53.382L48.5051,46.326C48.5051,45.879,48.1384,45.516,47.6919,45.516L47.0687,45.516C46.6184,45.516,46.2536,45.879,46.2536,46.326L46.2536,53.382M46.2821,53.382C46.2821,53.826,46.6488,54.192,47.0972,54.192L47.6919,54.192C48.1384,54.192,48.5051,53.826,48.5051,53.382L48.5051,46.326C48.5051,45.879,48.1384,45.516,47.6919,45.516L47.0972,45.516C46.6488,45.516,46.2821,45.879,46.2821,46.326L46.2821,53.382M15.922,42.429L12.5305,42.429L12.5305,51.978L15.922,51.978L15.922,42.429M23.8716,46.887C23.8716,46.443,23.5068,46.08,23.0584,46.08L12.2493,46.08L12.2493,46.08C11.8028,46.08,11.4361,46.443,11.4361,46.887L11.4361,53.946C11.4361,54.39,11.8028,54.753,12.2493,54.753L23.0565,54.753C23.5049,54.753,23.8716,54.39,23.8716,54.39L23.8716,46.887M12.5666,51.978L15.9581,51.978L15.9581,42.429L12.5666,42.429L12.5666,51.978M11.4361,53.943C11.4361,54.39,11.8028,54.753,12.2512,54.753L23.0584,54.753C23.5087,54.753,23.8735,54.39,23.8735,53.943L23.8735,46.887C23.8735,46.443,23.5087,46.077,23.0584,46.077L12.2512,46.077L12.2512,46.077C11.8028,46.077,11.4361,46.443,11.4361,46.887L11.4361,53.943M154.6296,35.118L150.1076,35.118L150.1076,42.42L154.6296,42.42L154.6296,35.118M156.465,35.118L148.2684,35.118L148.2684,37.059L156.465,37.059L156.465,35.118M158.6576,30.459C158.6576,30.459,154.204,31.707,152.3667,31.707C150.5294,31.704,146.0758,30.459,146.0758,30.459L146.0758,31.017L150.1057,33.177L150.1057,35.112L154.6277,35.112L154.6277,33.177L158.6576,31.017L158.6576,30.459M103.721,35.118L99.2009,35.118L99.2009,42.42L103.721,42.42L103.721,35.118M105.5583,35.118L97.3617,35.118L97.3617,37.059L105.5583,37.059L105.5583,35.118M107.7509,30.459C107.7509,30.459,103.2973,31.707,101.4581,31.707C99.6227,31.704,95.1691,30.459,95.1691,30.459L95.1691,31.017L99.199,33.177L99.199,35.112L103.7191,35.112L103.7191,33.177L107.7509,31.017L107.7509,30.459M52.4571,35.118L47.9351,35.118L47.9351,42.42L52.4571,42.42L52.4571,35.118M54.2944,35.118L46.0978,35.118L46.0978,37.059L54.2944,37.059L54.2944,35.118M56.4851,30.459C56.4851,30.459,52.0334,31.707,50.1942,31.707C48.3607,31.704,43.9052,30.459,43.9052,30.459L43.9052,31.017L47.9332,33.177L47.9332,35.112L52.4571,35.112L52.4571,33.177L56.4851,31.017L56.4851,30.459M16.5243,35.118L12.0023,35.118L12.0023,42.42L16.5243,42.42L16.5243,35.118M18.3616,35.118L10.1631,35.118L10.1631,37.059L18.3616,37.059L18.3616,35.118M20.5542,30.459C20.5542,30.459,16.1006,31.707,14.2633,31.707C12.4279,31.704,7.9724,30.459,7.9724,30.459L7.9724,31.017L12.0023,33.177L12.0023,35.112L16.5243,35.112L16.5243,33.177L20.5523,31.017L20.5523,30.459Z"/>
</svg>